/* XPM */
static char *_0103ab381ab447bc245467c3f47430fESGdxZSjgQwHqpKb[] = {
/* columns rows colors chars-per-pixel */
"32 32 134 2 ",
"   c None",
".  c #27160E",
"X  c #27170E",
"o  c #28170E",
"O  c #28170F",
"+  c #28180F",
"@  c #29180F",
"#  c #2A180F",
"$  c #2A190F",
"%  c #2B190F",
"&  c #2B1910",
"*  c #2C1910",
"=  c #2C1A10",
"-  c #2D1A10",
";  c #2E1B11",
":  c #2F1B11",
">  c #301C11",
",  c #301C12",
"<  c #311C12",
"1  c #311D12",
"2  c #321D12",
"3  c #331D12",
"4  c #331D13",
"5  c #331E12",
"6  c #331E13",
"7  c #341E13",
"8  c #351E13",
"9  c #351F13",
"0  c #351F14",
"q  c #361F14",
"w  c #372014",
"e  c #382014",
"r  c #382015",
"t  c #392115",
"y  c #3A2115",
"u  c #3A2215",
"i  c #3B2215",
"p  c #3A2216",
"a  c #3B2216",
"s  c #3C2216",
"d  c #3C2316",
"f  c #3D2316",
"g  c #3D2317",
"h  c #3E2416",
"j  c #3F2417",
"k  c #3F2517",
"l  c #402517",
"z  c #402518",
"x  c #412518",
"c  c #422618",
"v  c #432718",
"b  c #432719",
"n  c #442719",
"m  c #452819",
"M  c #45281A",
"N  c #46281A",
"B  c #46291A",
"V  c #47291A",
"C  c #492A1B",
"Z  c #4A2B1B",
"A  c #4C2C1C",
"S  c #4F2E1D",
"D  c #502E1D",
"F  c #502E1E",
"G  c #512E1E",
"H  c #512F1E",
"J  c #522F1E",
"K  c #52301E",
"L  c #53301E",
"P  c #53301F",
"I  c #54301F",
"U  c #54311F",
"Y  c #55311F",
"T  c #563220",
"R  c #573220",
"E  c #593321",
"W  c #5A3421",
"Q  c #5B3521",
"!  c #5C3522",
"~  c #5D3522",
"^  c #5E3623",
"/  c #5F3623",
"(  c #5F3723",
")  c #603723",
"_  c #603724",
"`  c #603824",
"'  c #613824",
"]  c #623824",
"[  c #633925",
"{  c #643925",
"}  c #653A25",
"|  c #653B25",
" . c #663B25",
".. c #663B26",
"X. c #673B26",
"o. c #673C26",
"O. c #693C27",
"+. c #693D27",
"@. c #6B3D27",
"#. c #6F4029",
"$. c #704029",
"%. c #704129",
"&. c #714129",
"*. c #71412A",
"=. c #72422A",
"-. c #73422A",
";. c #73432B",
":. c #74432B",
">. c #75442B",
",. c #76442B",
"<. c #77452C",
"1. c #79462C",
"2. c #79462D",
"3. c #7B472D",
"4. c #7D482E",
"5. c #7E482E",
"6. c #7E492E",
"7. c #7F492F",
"8. c #804A2F",
"9. c #814A2F",
"0. c #814B30",
"q. c #824B30",
"w. c #834B30",
"e. c #834C30",
"r. c #844C30",
"t. c #844C31",
"y. c #854C31",
"u. c #854D31",
"i. c #864D31",
"p. c #864E32",
"a. c #874E32",
"s. c #884E32",
"d. c #884F32",
"f. c #894F32",
/* pixels */
"2.$.) T T W Y T Y W Y W Y W J s C Y W Y T W T W T T Y W W O.@.4.",
"u.u.u.t.t.t.t.t.t.9.t.t.t.t.4.l ) t.t.t.u.0.0.t.t.t.t.t.0.t.t.s.",
"s.u.0.4.4.4.4.4.4.8.6.6.9.s.4.s ' s.9.9.6.4.3.6.4.4.8.4.6.0.s.s.",
"u.u.W n n V n n l u i i W t.8.l ( s.,.V b V V v n s s u n ,.s.s.",
"s.t.K w q 8 8 : # X X X K u.6.j [ u.$.j w 6 w 6 % # X X 6 $.s.s.",
"s.u.K 6 O O O O # X X o Y u.6.j [ d.;.j : X X X O O O X 6 ,.s.u.",
"u.u.K 6 # X O O # X X # G 9.6.j ( d.;.d # X # # # # # X 6 ;.s.u.",
"s.t.K # # # # # # # o # Y s.6.j ( d.;.w # # # X # # X # 6 >.s.s.",
"s.t.G O X # # X & # # # Y 9.9.j ' d.;.6 X # # # X # # # 6 ;.d.u.",
"s.t.G O X # X & X X ; ; Y u.6.l ' 9.>.6 X # X # # X # 6 w $.u.d.",
"s.t.G O X # # X X X ; 6 G u.6.j ' d.>.8 X # O # X X # 8 q >.d.s.",
"s.t.G O # X X # # # : 6 Y u.6.j ' d.$.6 # X O O # # # 8 q >.d.u.",
"s.t.G X O # ; 8 u u s 6 G u.6.j ' d.>.8 X O # > q s s q 6 ;.u.s.",
"s.t.' G D S K Y K K K S [ u.6.l ' d.>.K S G G Y Y Y J G T >.u.s.",
"s.u.9.9.9.9.6.9.9.0.9.0.9.u.1.s Q u.9.9.0.0.0.0.9.6.0.0.0.0.d.d.",
"u.s.s.u.u.s.s.u.u.s.u.s.s.2.n u u ( d.d.u.s.u.s.u.s.d.u.s.d.u.a.",
"u.s.u.s.s.u.s.u.s.s.s.s.s.2.l w u ^ u.s.u.s.s.s.s.s.u.s.s.s.u.u.",
"d.u.$...o.o.o.o...| | | $.6.^ s Z $.u.$.....o...O...| ....&.u.s.",
"s.u.K u s j j w 6 # # # Y u.>.s W u.u.T u u d j 8 6 # # # G u.s.",
"u.u.K 6 : & % # O o O O Y s.6.j ( s.u.T w : % % # # # X X G u.s.",
"s.u.T 6 X # X X # # X X Y 9.9.j ( d.u.T 8 O X X X # # # # G u.u.",
"s.u.G > # X # # # # o o Y s.6.l _ d.u.T 6 # X # # # X # X G u.s.",
"s.u.G O # X X # # # o o Y 9.6.j _ d.u.G O # # # X # # O O G t.s.",
"u.u.G O X # # # # O % % J u.6.j [ u.u.P X O # X X # O % % G u.u.",
"s.u.G O O # # # O O > > J u.4.l ' s.9.Y O O # O & X X ; 6 S 9.s.",
"s.t.G O # X X X O O : > J s.6.j ' s.u.K O O # O # X X ; 6 S u.s.",
"s.t.G O X X # # > > q > G u.9.j ' s.u.Y X O O O & 6 6 8 6 G t.s.",
"u.u.I > > 6 u s b s b q Y s.4.l ' s.9.Y 6 > 6 q d j j j 8 J u.u.",
"d.t.$.+.O.+.+.+.+.O.O.O.$.u.>.s Q u.u.$.O.O.O.+.O.O.+.+.O.$.u.s.",
"a.d.u.a.u.u.s.s.s.u.t.0.e.e.O.s G 3.e.9.t.u.d.a.a.d.u.u.s.u.s.u.",
"0.7.#.+.+.+.+.+.+.+..._ _ _ Q s Z ^ [ ^ ..O.+.+.+.+.+.+.O.#.6.u.",
"  O.S M M n V n V n n n V V n u b V V V M M M M M M b V V S o.  "
};
