/* XPM */
static char *_b55095f80fb4a8aeeef7b9aca2663a8sjhSWe0TvXjsIQmU[] = {
/* columns rows colors chars-per-pixel */
"32 32 66 1 ",
"  c #76472D",
". c #79472E",
"X c #7D4C2C",
"o c #794633",
"O c #7D4B33",
"+ c #804E2D",
"@ c #82512E",
"# c #814E34",
"$ c #824E3A",
"% c #855334",
"& c #895636",
"* c #8B5A36",
"= c #85533B",
"- c #89563C",
"; c #87593B",
": c #8C5B3C",
"> c #915E3D",
", c #8E603E",
"< c #93623D",
"1 c #98673E",
"2 c #855441",
"3 c #8A5643",
"4 c #8D5B43",
"5 c #8E5E48",
"6 c #915E44",
"7 c #925F49",
"8 c #8E6044",
"9 c #946344",
"0 c #996645",
"q c #966844",
"w c #9B6A46",
"e c #95634A",
"r c #99664B",
"t c #9C6B4B",
"y c #9F724C",
"u c #8F6451",
"i c #946752",
"p c #996651",
"a c #9D6B52",
"s c #A16F47",
"d c #A06E4E",
"f c #A57245",
"g c #A3734D",
"h c #A8764E",
"j c #AA7A4C",
"k c #A16E52",
"l c #A26F59",
"z c #A57453",
"x c #A97654",
"c c #A77956",
"v c #AB7A54",
"b c #A5755B",
"n c #A9765A",
"m c #A0795C",
"M c #AC7B5A",
"N c #B07E57",
"B c #B17F5E",
"V c #B17F64",
"C c #AF8056",
"Z c #AF825B",
"A c #B38355",
"S c #B2815B",
"D c #A78061",
"F c #B48461",
"G c #B98560",
"H c #B38168",
/* pixels */
"#t=aw96x9=O;t%v8eqz;=#t4:x-egh==",
"t$-gz-#&:tyeOezt+;-ttz=2ggr$=@tt",
"A:&qz4g97vvx%;aw9n3tjxyX>l9wk>hh",
"7wc=%hMk$sj:hkO9nj<@St4C9OajM#6N",
":jw63:==t:&tzt-:9$4e3-hg9=<*#7r4",
"636zqzz;tz=6;9brht4Mp:9-zttn7rz:",
"vr9Bz6t97=vx:zn9<9q;*Sw,vc6r99=w",
"6<OqsX:Svq*0-#g1ozZz>:pO6g&$NAw4",
"69k.9a=rd9;>t9Xqe-ae446g$&t:;y9-",
"0vn9tvgO$pezxz>nvq.3k9hxeqNv:O7t",
";zt%;zqdt:9:ze=4f9n99&gz3%et9n6w",
"%e=gt3=f:%%&e%vq7:g%%%44<M:-rt@-",
"v=3tx9-%9vMlowtz$:#gnH4Xgtt#-%MM",
"z9::t<Md4wjd9%9ewG>6zvy:=t>xB=0j",
"4gv:Ozyq$ba>xx%4hw6=n<<SwXtztOex",
":z6449=3h4O1g4394=>z-#z954e=-wt%",
"t$0GrzM29tr7=zB9vt3twt=-Zz0ve3z>",
"Mt&jg->hd#gM6<jw=qc4-Bz3gv>:sz-r",
"%:-*q.4vNr&&%=e4Owvx6+>#=q3OhSl%",
"tsl$rv:4467kve2gx%9,>edv--zg#e:6",
"6gx4ehg%=g9tfz-gnr%=b4zve6xz4%9b",
"=z<46r<xg%*:z66-k*Se3=tq4>7rqS%<",
"4--gk==r-i6-3;Nr%:q=69%;qv6#9:-6",
"M3%sh>9=0vMM.<gk%p$zvAtoqz0>6-Sh",
"aqw=3gAxOzz0t>-8xSr=Nd6s-39SS%9v",
"iMce=t<-3r0<Nz=4t:%6t>kMt#t:4-et",
"iu:e7r94hw+q63qee9<v-$t*e6rt-tz%",
"D;wGwtd;>7zt-xB9zr->rM63Sh<n::9r",
"mw+sx%:Fn&rz6&xtXlHt-zd=9x:%nZ*q",
"u36%:=4ahq%=6-%4=:zg6$%<$4:=tnw%",
"mcx-zSw%2e0dxd;MM9%-0qMN69Sc=34e",
"5cg-7g964q09nt=9g<e3d:th9=ww<4>c"
};
