/* XPM */
static char *_6c10254e6764569cba11b70446631d6qyx2AMRji3xuiVcF[] = {
/* columns rows colors chars-per-pixel */
"32 32 187 2 ",
"   c #010102",
".  c #1E1B0B",
"X  c #0F0F11",
"o  c #1D1D1D",
"O  c #222107",
"+  c #26230A",
"@  c #2A2806",
"#  c #3B350E",
"$  c #343405",
"%  c #23221A",
"&  c #302E11",
"*  c #3E3B1E",
"=  c #1F1F22",
"-  c #343325",
";  c #393725",
":  c #2F2F30",
">  c #3B3B39",
",  c #252525",
"<  c #501613",
"1  c #423C0E",
"2  c #413B16",
"3  c #583D15",
"4  c #593D21",
"5  c #50510F",
"6  c #494511",
"7  c #4D4A13",
"8  c #504B13",
"9  c #565718",
"0  c #724F1D",
"q  c #635C17",
"w  c #79581D",
"e  c #62650B",
"r  c #6A631C",
"t  c #686716",
"y  c #736D1B",
"u  c #74721A",
"i  c #7B731D",
"p  c #797A19",
"a  c #777A19",
"s  c #454224",
"d  c #5C5725",
"f  c #58532A",
"g  c #5F4F38",
"h  c #574A38",
"j  c #545235",
"k  c #5E5D34",
"l  c #5D5D3E",
"z  c #7F5721",
"x  c #605D39",
"c  c #6A5E3B",
"v  c #5F6137",
"b  c #6B6528",
"n  c #776B20",
"m  c #7E7F37",
"M  c #686A3C",
"N  c #4C4C4E",
"B  c #5F5240",
"V  c #535355",
"C  c #615F4B",
"Z  c #656349",
"A  c #6A6A53",
"S  c #686758",
"D  c #726F51",
"F  c #727051",
"G  c #77765D",
"H  c #797A43",
"J  c #7B7A69",
"K  c gray50",
"L  c #D40301",
"P  c #D70A03",
"I  c #DB280A",
"U  c #82671B",
"Y  c #837B1E",
"T  c #8A781F",
"R  c #926825",
"E  c #877E20",
"W  c #DA4F13",
"Q  c #E24E14",
"!  c #E35415",
"~  c #D1711C",
"^  c #837E44",
"/  c #807C55",
"(  c #7F811B",
")  c #7F8075",
"_  c #88881D",
"`  c #ACA819",
"'  c #8D8421",
"]  c #898A23",
"[  c #8D8729",
"{  c #89872C",
"}  c #908622",
"|  c #948A23",
" . c #998D23",
".. c #8E9222",
"X. c #959324",
"o. c #9E9324",
"O. c #969624",
"+. c #868233",
"@. c #938C3E",
"#. c #A49B26",
"$. c #A69A2C",
"%. c #A59728",
"&. c #A89D30",
"*. c #AAA526",
"=. c #AEA128",
"-. c #A4A327",
";. c #B2A629",
":. c #B5AA2A",
">. c #B8AD29",
",. c #BEB22C",
"<. c #B5B827",
"1. c #B1A534",
"2. c #B3AC31",
"3. c #EC8321",
"4. c #C4B62D",
"5. c #C4BD2C",
"6. c #C8BB2E",
"7. c #D1BD2F",
"8. c #C9BA32",
"9. c #F2A629",
"0. c #F5AC2C",
"q. c #BDC228",
"w. c #BCC136",
"e. c #CCC42D",
"r. c #C9CB2C",
"t. c #D2C12F",
"y. c #D1CD2D",
"u. c #D8CC2F",
"i. c #D8D52F",
"p. c #D3C232",
"a. c #D4CB30",
"s. c #DDCC33",
"d. c #DDD632",
"f. c #DED832",
"g. c #E3CB33",
"h. c #FACC33",
"j. c #E4D334",
"k. c #E8D635",
"l. c #E4DA33",
"z. c #ECDB36",
"x. c #FBD235",
"c. c #F1DE37",
"v. c #FCD836",
"b. c #EBE135",
"n. c #F2E337",
"m. c #F5E538",
"M. c #FAE639",
"N. c #FFEB3B",
"B. c #FFF03C",
"V. c #898448",
"C. c #908946",
"Z. c #8C8754",
"A. c #848050",
"S. c #8E8B6E",
"D. c #8A8660",
"F. c #8B8B79",
"G. c #95937F",
"H. c #828281",
"J. c #8B8B8B",
"K. c #9A9886",
"L. c #97978A",
"P. c #989898",
"I. c #989993",
"U. c #A5A59A",
"Y. c #A6A6AA",
"T. c #ADADAB",
"R. c #A5A5A2",
"E. c #B7B6AE",
"W. c #B4B4B3",
"Q. c #BCBCBD",
"!. c #E0E2B9",
"~. c #C4C4C5",
"^. c #C6C6C9",
"/. c #CBCCCD",
"(. c #C8CAC8",
"). c #D0D0CE",
"_. c #CECED1",
"`. c #D3D3D4",
"'. c #DCDCDE",
"]. c #D5D5D9",
"[. c #DEDEE0",
"{. c #E4E4E5",
"}. c #E9E9EB",
"|. c #E5E5E8",
" X c #EFEFF1",
".X c #F2F2F4",
"XX c #FFFFFF",
/* pixels */
"XXXXXXXXXXXXXXXXXXXXXXXXXXXXXXXXXXXXXXXXXXXXXXXXXXXXXXXXXX{.Q.> ",
"XXXXXXXXXXXXXXXXXXXXXXXXXXXXXXXXXXXXXXXXXXXXXXXXXXXXXXXX`.N X   ",
"XX|.J.K K H.F.J.{.XXXXXXXXXXXXXXXXXXXXXXXXXXXXXXXXXXXX(.Z.E i O ",
"XX`.o     5 _ ] D S S I.}.}.}..X}.}.}.}.}.}.|.}..X.XQ.C.s.B.z.# ",
"XXXXT.,   Y i.l.u.t.5.| x x B R.F k x x x x x A U.C +.z.N.M.r.@ ",
"XXXXXXQ.: $ ` y.b.B.N.M.z.z.y.{ s.c.z.z.z.z.z.s.[ e.m.m.b.y...Z ",
"XXXXXXXX~.F.k e <.d.f.d.n.N.B.N.M.N.N.N.N.N.N.N.M.B.m.*.O.] F.{.",
"}.XXXXXXXXXX).T.H w.-.X.m.N.B.B.N.N.N.N.N.N.N.N.N.N.m.r.t F. XXX",
"V ~.XXXXXXXXXXXX{.!.2.k.N.N.s.e.M.N.N.N.N.N.N.N.M.p.g.B.u Y.XXXX",
"% v Q.XXXXXXXXXX.XU.%.N.N.8.6 B 1.M.N.N.N.N.N.m. .; A.p.#.F.}.XX",
"; 1.( W.XXXXXXXX[.f c.N.N.t   V s z.N.N.N.N.N.k.+ % N i m.q Q.XX",
"s j.s.( U..XXXXX_.b m.M.v.7.6 + &.M.N.N.c.k.M.M.#.O 7 p.v.n T.XX",
"; f.N.f.+.L..X.XA 7.M.3.I 3.g.s.N.N.M.N.;.r t.N.N.g.x.~ I ~ c `.",
"; j.N.N.l.{ F.].j k.0.P L P 0.B.B.k.4.B.8.' j.m.,.N.9.P L L < ^.",
"2 j.B.N.N.b.O.A ; j.x.! L ! h.N.M.k.} i E ' E i o.m.h.Q L Q s /.",
"2 j.B.N.N.N.m.O.O t M.x.9.x.N.N.N.N.z.;.s.N.8.>.M.N.N.x.9.T I..X",
"* k.N.N.N.N.N.z.& j p.N.B.N.N.N.N.N.N.B.N.N.B.N.N.N.N.N.e.Z ).XX",
"J 1.M.N.N.N.M.:.J F.&.M.N.N.N.N.N.N.N.N.N.M.N.N.N.N.N.N.:.S.{.XX",
" XK.&.M.N.M.&.K._.; %.M.N.N.N.N.N.N.m.f.d.d.l.m.N.N.N.N.M.b Q.XX",
"}.G 8.N.N. .L..X/.f 4.N.N.N.N.N.M.z.M.f.r.r.l.N.N.z.N.N.N.r Q.XX",
"{.D e.M.N.' I.{.A p.N.N.N.s.c.N.s.y M.N.m.m.N.N.>.| M.k.j.r Q.XX",
"XX'.D.4.N.z.{ ) s k.N.N.N.y ;.B.j.Y ,.N.N.N.M.=.} z.B.X.} $.K.}.",
"XXXX{.S.#.y.q.e & k.N.N.N.*.u g.N.4.q M.N.N.c.7 s.B.p.u ,.M.d ^.",
"XXXXXX[.G _ %.U 1 k.N.N.M.d.9 ;.B.4.q M.N.N.c.7 s.N.o.t b.M.d ^.",
"XXXXXX^.g z R z 1 j.N.N.N.M.5.u ;.%.E N.N.N.n.u =.$.p a.N.M.d ^.",
"XXXXXXXXW.x 3 0 1 a.N.N.N.N.M.a.E | c.N.N.N.N.k.E ' d.N.N.M.d ^.",
"XXXXXXXXXX~.J.h . u M.N.N.N.N.N.N.N.N.N.N.N.N.N.N.N.N.N.N.$.K.}.",
"XXXXXXXXXXXXXX`.Y.j 6.N.N.N.N.N.N.N.N.N.N.N.N.N.N.N.N.N.c.b ~.XX",
"XXXXXXXXXXXXXXXXXX(.V.a.B.B.N.N.m.m.m.m.n.n.m.M.N.B.N.k.@.E..XXX",
"XXXXXXXXXXXXXXXXXXXX`.Z.4.m.b.d.] u a a a a ( y.b.M.t.C.Q.XXXXXX",
"XXXXXXXXXXXXXXXXXXXX].G :.z.' 7 - J.P.P.P.I.> 6 u l.4.^ Q.XXXXXX",
"XXXXXXXXXXXXXXXXXXXXW.+ 6 6 . J.^.XXXXXXXXXX_.R.% 6 7 @ J.XXXXXX"
};
