/* XPM */
static char *_c097572d4d54fabc6363390cf8672501vkv0fvpDTMSluIg[] = {
/* columns rows colors chars-per-pixel */
"32 32 115 2 ",
"   c white",
".  c #FDFDFD",
"X  c #E5E6E6",
"o  c #E1E2E2",
"O  c #E6E8E8",
"+  c #CFCCCC",
"@  c #533B3B",
"#  c #392424",
"$  c #513F3F",
"%  c #CECDCD",
"&  c #D4D1D1",
"*  c #4F1F1F",
"=  c #AF1C1D",
"-  c #A81414",
";  c #A11616",
":  c #961919",
">  c #482323",
",  c #503F3F",
"<  c #533C3C",
"1  c #A90404",
"2  c #C83234",
"3  c #EFA8AD",
"4  c #D93B3C",
"5  c #BF1919",
"6  c #B91919",
"7  c #A61717",
"8  c #911717",
"9  c #CFCDCD",
"0  c #4E1B1B",
"q  c #C31515",
"w  c #F3A7AC",
"e  c #FCEDF0",
"r  c #EEA9AE",
"t  c #D61A1B",
"y  c #CE0505",
"u  c #BD1A1A",
"i  c #A51818",
"p  c #543C3C",
"a  c #AF0302",
"s  c #D40203",
"d  c #DE3536",
"f  c #ECA8AD",
"g  c #B63F40",
"h  c #BD0404",
"j  c #CD0606",
"k  c #BB1919",
"l  c #B61C1C",
"z  c #971919",
"x  c #E0E2E2",
"c  c #392020",
"v  c #A90000",
"b  c #D50000",
"n  c #D50203",
"m  c #B71C1D",
"M  c #4B2223",
"N  c #421717",
"B  c #9D1717",
"V  c #B71C1C",
"C  c #911313",
"Z  c #362424",
"A  c #282525",
"S  c #481919",
"D  c #B00303",
"F  c #4A1A19",
"G  c #B6B5B5",
"H  c #888888",
"J  c #391717",
"K  c #921414",
"L  c #3A1818",
"P  c #272525",
"I  c #E2E2E2",
"U  c gray90",
"Y  c #565656",
"T  c #A2A0A0",
"R  c #533939",
"E  c #391F1F",
"W  c #353232",
"Q  c #8A8B8B",
"!  c #818181",
"~  c #2B2929",
"^  c #2D1B1B",
"/  c #412E2E",
"(  c #7B7979",
")  c #505050",
"_  c gray81",
"`  c #555555",
"'  c #C9CACA",
"]  c #E1E3E3",
"[  c #CDCDCD",
"{  c gray30",
"}  c gray27",
"|  c gray61",
" . c #AAABAB",
".. c #979898",
"X. c #484848",
"o. c #E6E6E6",
"O. c #585858",
"+. c #C8C8C8",
"@. c gray89",
"#. c gray94",
"$. c gainsboro",
"%. c #D5D5D5",
"&. c #C0C0C0",
"*. c gray67",
"=. c #979797",
"-. c #515151",
";. c #A2A2A2",
":. c gray69",
">. c #AFAFAF",
",. c #494949",
"<. c gray83",
"1. c #CECECE",
"2. c #393939",
"3. c gray32",
"4. c #E1E1E1",
/* pixels */
"                                                                ",
"                                                                ",
"                                                                ",
"                                                                ",
"                                                                ",
"                                                                ",
"                                                                ",
"                                                                ",
"                                                                ",
"                      . X o o X .                               ",
"                  . O + @ # # $ % O .                           ",
"                . & @ * = - ; : > , & .                         ",
"                O < 1 2 3 4 5 6 7 8 , O                         ",
"              . 9 0 q w e r t y u i > % .                       ",
"              X p a s d f g h j k l z $ X                       ",
"              x c v b n m M N B V V C Z o                       ",
"              o A S D v F G H J K z L P I                       ",
"              U Y T R E W Q ! ~ ^ / ( ) U                       ",
"              . _ ` ' ] [ { } |  ...X._ .                       ",
"                o.O.+.@.#.$.%.&.*.=.-.o.                        ",
"                . %.O.-.;.:.>.| ,.-.<..                         ",
"                  . o.1.-.2.2.3._ o..                           ",
"                      . U 4.4.U .                               ",
"                                                                ",
"                                                                ",
"                                                                ",
"                                                                ",
"                                                                ",
"                                                                ",
"                                                                ",
"                                                                ",
"                                                                "
};
