/* XPM */
static char *_0a71d226ed44736d7a07dd06e15db26RpbKwaO5Vee1rgQA[] = {
/* columns rows colors chars-per-pixel */
"32 32 114 2 ",
"   c None",
".  c black",
"X  c #010000",
"o  c #060000",
"O  c #0E0000",
"+  c #0F0000",
"@  c #100000",
"#  c #150000",
"$  c #1A0000",
"%  c #1C0000",
"&  c #1D0000",
"*  c #1E0000",
"=  c #1F0000",
"-  c #240000",
";  c #260000",
":  c #280000",
">  c #290000",
",  c #2A0000",
"<  c #2C0000",
"1  c #2D0000",
"2  c #2E0000",
"3  c #320000",
"4  c #330000",
"5  c #390000",
"6  c #3A0000",
"7  c #3B0000",
"8  c #3C0000",
"9  c #3D0000",
"0  c #430000",
"q  c #460000",
"w  c #4A0000",
"e  c #4C0000",
"r  c #520000",
"t  c #590000",
"y  c #5B0000",
"u  c #5C0000",
"i  c #5D0000",
"p  c #5E0000",
"a  c #600000",
"s  c #610000",
"d  c #620000",
"f  c #630000",
"g  c #640000",
"h  c #650000",
"j  c #660000",
"k  c #670000",
"l  c #680000",
"z  c #690000",
"x  c #6A0000",
"c  c #6B0000",
"v  c #6C0000",
"b  c #6D0000",
"n  c #6E0000",
"m  c #6F0000",
"M  c #700000",
"N  c #710000",
"B  c #720000",
"V  c #730000",
"C  c #740000",
"Z  c #750000",
"A  c #760000",
"S  c #770000",
"D  c #780000",
"F  c #790000",
"G  c #7A0000",
"H  c #7B0000",
"J  c #7C0000",
"K  c #7D0000",
"L  c #7E0000",
"P  c #7F0000",
"I  c #800000",
"U  c #810000",
"Y  c #820000",
"T  c #830000",
"R  c #840000",
"E  c #850000",
"W  c #860000",
"Q  c #880000",
"!  c #890000",
"~  c #8A0000",
"^  c #8B0000",
"/  c #8C0000",
"(  c #8D0000",
")  c #8E0000",
"_  c #8F0000",
"`  c #900000",
"'  c #910000",
"]  c #920000",
"[  c #930000",
"{  c #940000",
"}  c #950000",
"|  c #960000",
" . c #970000",
".. c #980000",
"X. c #990000",
"o. c #9A0000",
"O. c #9B0000",
"+. c #9C0000",
"@. c #9D0000",
"#. c #9E0000",
"$. c #9F0000",
"%. c #A00000",
"&. c #A10000",
"*. c #A20000",
"=. c #A30000",
"-. c #A40000",
";. c #A60000",
":. c #A70000",
">. c #A80000",
",. c #A90000",
"<. c #AA0000",
"1. c #AC0000",
"2. c #AD0000",
"3. c #AE0000",
/* pixels */
"                              @.@.                              ",
"                            W _ _ Q                             ",
"                            n c h D                             ",
"                            K c n C                             ",
"         ...                  d h                    ...        ",
"      [ @.@.[                                     [ @.@. .      ",
"      n n h C               K K K K               c n h C       ",
"      I M C I         C W [  ..... .[ I C         I M C I       ",
"        y i         I [ @.@.%.;.%.%.%...[ I         i i         ",
"        W Q       Q ..@.;.3.3.3.3.3.3.;.@. .W       Q Q         ",
"                Q @.@.%.,.3.,.;.;.,.3.3.@.@.@.W                 ",
"              D _ @.@.@.@.%.@.@.@.@.%.@.@.@.@.Q C               ",
"              K [ [ @.@.@.@.@.@.@.@.@.@.@.@. .[ K               ",
"              I  . .@...@.%.@.@.@.@.@...@.@. . .K               ",
"              K _ Q e 3 3 h @.@.@.I 8 3 5 K  .[ I               ",
"              K [ h X X X < ..@.@.y X X X > _  .K               ",
"  ..@.@.      K ..i X X X 8 ....@.n o X X % _  .K       @.@...  ",
"  W  .W _       [ Q q % 8 I @.y D ..h < ; d ..[       Q Q  .W   ",
"  h n h I       Q @..._ ..%.[ $ r @.%. .[ @...W       D h n c   ",
"  C c M         W @.%.,.;.;.i X - Q %.,.3.%...W         n n M   ",
"  n d c         C _ ..[ @.@.w # % C %.@._  ._           h d n   ",
"                  K W 3 M %.[ I I  .%.M > C D                   ",
"                    _ > 4 @.%.@.%.@.@.5 + D                     ",
"                    [ 3 % M n h M K h - @ K                     ",
"                    [ q + < - + + ; ; # 8 Q                     ",
"                    _ [ y - % $ % ; 5 h  .Q                     ",
"                    D  ...M n n h n n  . .C                     ",
"          ..%.%...    I [ @.%.;.%.%.@. .I     @.%.%.            ",
"          C K C K       D _ ..%.%..._ D       M W n Q           ",
"          K n n K           K K K K           C n M W           ",
"            d d                               c i h             ",
"            M C                                 M D             "
};
