/* XPM */
static char *_865c57662054d28c93ece1c9670b897L4Pin4DTwHEDkvKd[] = {
/* columns rows colors chars-per-pixel */
"32 32 96 2 ",
"   c #211616",
".  c #251B1B",
"X  c #23221F",
"o  c #252521",
"O  c #2C2323",
"+  c #2A2B27",
"@  c #2C2E2A",
"#  c #322626",
"$  c #322827",
"%  c #332A29",
"&  c #3B2D2D",
"*  c #2F302C",
"=  c #32322E",
"-  c #353632",
";  c #3C3131",
":  c #3C3A37",
">  c #412F30",
",  c #423434",
"<  c #443837",
"1  c #463938",
"2  c #4A3B3B",
"3  c #4A4747",
"4  c #4C4B4B",
"5  c #514E4E",
"6  c #555453",
"7  c #595555",
"8  c #5D5B5B",
"9  c #615E5E",
"0  c #60605F",
"q  c #646262",
"w  c #696666",
"e  c #6C6A6A",
"r  c #6D6A6A",
"t  c #6C6B6A",
"y  c #6C6B6B",
"u  c #6D6B6B",
"i  c #6F6C6C",
"p  c #6F6F6F",
"a  c #716C6C",
"s  c #726D6D",
"d  c #716F6F",
"f  c #726F6F",
"g  c #6F706F",
"h  c #70706F",
"j  c #737171",
"k  c #737372",
"l  c gray45",
"z  c #747171",
"x  c #747272",
"c  c #737473",
"v  c #747473",
"b  c #777474",
"n  c #777575",
"m  c #777878",
"M  c gray47",
"N  c #787979",
"B  c #7B7979",
"V  c #7B7C7C",
"C  c #7C7C7C",
"Z  c #7C7C7D",
"A  c gray49",
"S  c #7D7E7E",
"D  c #7E7E7E",
"F  c #817F7F",
"G  c #818181",
"H  c #828282",
"J  c #828383",
"K  c #878585",
"L  c #858586",
"P  c #858686",
"I  c #868787",
"U  c #888686",
"Y  c #898686",
"T  c #8A8787",
"R  c #878887",
"E  c #888887",
"W  c #8A8888",
"Q  c #8B8888",
"!  c #8B8B8B",
"~  c #8C8A8A",
"^  c #8B8C8B",
"/  c #8C8C8B",
"(  c #8D8C8B",
")  c #8E8C8C",
"_  c #8E8D8D",
"`  c #8D8E8D",
"'  c #908E8E",
"]  c #918E8E",
"[  c #918F8F",
"{  c #949393",
"}  c gray59",
"|  c #9B9B9B",
" . c #9B9C9C",
".. c gray62",
"X. c #9F9F9F",
"o. c #A0A0A0",
/* pixels */
") 1 w r } o..... .M : y w } ............o.X......... .M : w i } ",
"k = 0 M G G J G K L % 8 m G G G G J G G G G G G G G K R = 9 M G ",
"d < U K S V m m S p + 8 S S S b m b V M S M M S M S S b - G K S ",
"q % r U b r 5 5 w 3 O q L c y 6 4 6 q 6 q 6 i r 6 a z q % r U b ",
"% O O ; , 1 , , 1 & O ; ; O % & , ; - - : = 1 = & & ; % O - 2 2 ",
"d q $ 8 9 U [ [ [ ) ) ! y % 8 q K { ) ) [ [ [ ! f > 5 8 ! ) ) { ",
"S z , 9 C F G H G J J K L , q M G G G G F F G L E , 8 M G F G J ",
"S f < U F C S S V S S S d - L J S S S S S S S S b - K G S S V S ",
"F d - ) L F C M C M M M 6 @ ! L F C M M C M m S h = ) K S M C S ",
"z q % r L b r 6 w 5 5 r 8 O y L z w 5 5 w 5 5 y q $ r E i 6 r k ",
"1 ; O . & ; 1 , 1 , , 1 ; .   ; , 2 , , 1 , , 1 ; # $ O & & < 1 ",
") ! r # 9 q U [ [ [ [ [ ! y O 8 q U [ [ [ [ [ [ [ ) r $ 6 q T [ ",
"J K U 1 q m F L L F F G K W : q M F J G J J J K G K K + : h F G ",
"S S b 1 K J C M m b m b m l - J K M S M M M M M M m k - C K S S ",
"d z q $ y ! k 5 3 4 4 3 5 9 + y ! b r 7 w 6 w 5 4 4 0 % a ) b f ",
"2 1 ; % ; 2 1 , O . # & , ; # ; 2 2 1 , 1 , < # . O $ O ; 2 2 1 ",
"{ ) ) ) ) [ [ ' r % 8 q E ) ) ^ [ [ [ [ [ [ ) y $ 8 q U ) ) [ { ",
"G J J J J F F K R * 0 m G J J G G G G F J J K U - 0 m G J G G G ",
"V b b m S S M S c - K K G S m m C S M M M M M k - J K V C C m V ",
"i 4 4 4 r r 6 d w ; d ) ) i 5 4 r r 5 5 w 5 5 0 # y ! z d d k k ",
"1 * * + O % & < - ; < 2 2 : = O O % & , < - ; - # ; < & , , 1 2 ",
"[ ) ) y # 9 q U ) [ [ { ) ) ! y % q w ! ) ^ [ ) ) ! i ; 9 q U [ ",
"G J K E , q M F F F G G F G U U - K } K J J G G G K K - 9 m F K ",
"S S D b 2 E J S S C C M M M M z % q J S V V S V S S c - L K C C ",
"h h g w , d U z a 6 w 5 3 4 5 q > w U z k d k g i d w , a ) z z ",
"2 - - 1 > 1 : , & & & = = ; , 1 , 2 2 , & , ; - - - & > 1 2 2 1 ",
"[ ! { } } { [ r , q q Q { { { { { { [ z 2 r w ) { F 1 G ) [ [ [ ",
"M k } X.X.o.X.M : r r } ..o.o.o.o.X...| { | } .. .S , d d F G F ",
"r M F F G G U U = 8 b F G F F F G G G G G G G G G K - 8 b M m M ",
"{ H M F M M S i + 8 C S C M b M C M C M M S C V S k - U S 8 8 m ",
"M U z d 6 5 r 3 O w U z r 5 5 5 q 6 w 6 r y 6 r b q % r U d y d ",
"O # & > # # # .   . # O O # # $ o X $ X % O # & & O   o > & & & "
};
